<svg xmlns="http://www.w3.org/2000/svg" xmlns:xlink="http://www.w3.org/1999/xlink" width="100" height="100" viewBox="0 0 100 100"><g><g transform="translate(50 50) scale(-0.69 0.69) rotate(0) translate(-50 -50)" style="fill:#0073b0"><svg fill="#0073b0" xmlns="http://www.w3.org/2000/svg" viewBox="0 0 92.215 61.475" x="0px" y="0px"><title>taco</title><g><path d="M82.234,29.513A14.167,14.167,0,0,0,80,22.249a14.615,14.615,0,0,0-7.856-5.722c-.551-4.221-2.308-7.444-5.232-9.591C61.835,3.212,54.835,3.964,52.458,4.359c-8.9-8.2-19.527-2.585-21.959-1.11-5.415-.613-9.813.521-13.077,3.379-4.666,4.085-5.5,10.4-5.649,12.624A30.663,30.663,0,0,0,0,43.4v5.722A12.368,12.368,0,0,0,12.354,61.475H84.883a7.34,7.34,0,0,0,7.332-7.332V52.79C92.215,44.183,88.234,34.982,82.234,29.513ZM19.413,8.872c2.692-2.348,6.471-3.217,11.236-2.582a1.521,1.521,0,0,0,1.059-.258c.437-.307,10.805-7.4,19.209,1a1.508,1.508,0,0,0,1.392.4c.078-.019,7.884-1.722,12.836,1.922,2.426,1.787,3.812,4.637,4.119,8.473a1.506,1.506,0,0,0,1.221,1.356,11.892,11.892,0,0,1,7.026,4.737c1.828,2.8,2.225,6.521,1.177,11.059a1.505,1.505,0,0,0,.119,1c.024.048,2.357,4.854.737,9.083a9.037,9.037,0,0,1-4.736,4.808,12.4,12.4,0,0,1-.2-2.2V43.4A30.741,30.741,0,0,0,43.9,12.694h-13.2a30.511,30.511,0,0,0-15.585,4.265A14.547,14.547,0,0,1,19.413,8.872Zm47.861,49.6H12.354A9.363,9.363,0,0,1,3,49.122V43.4A27.672,27.672,0,0,1,13.867,21.419a1.5,1.5,0,0,0,.493-.37,27.548,27.548,0,0,1,16.346-5.355H43.9A27.738,27.738,0,0,1,71.607,43.4v4.288a13.485,13.485,0,0,0,4.974,10.787Zm21.941-4.332a4.337,4.337,0,0,1-4.332,4.332H82.768a11.586,11.586,0,0,1-7.021-5.73,12.062,12.062,0,0,0,6.608-6.621c1.751-4.605.029-9.411-.633-10.963.116-.546.2-1.078.282-1.606A30.281,30.281,0,0,1,89.215,52.79Z"></path><path d="M27.2,33.382a1.5,1.5,0,1,0,2.493-1.669,6,6,0,0,0-9.973,0,1.5,1.5,0,0,0,2.493,1.669,3,3,0,0,1,4.987,0Z"></path><path d="M48.706,29.047a5.994,5.994,0,0,0-4.987,2.666,1.5,1.5,0,0,0,2.493,1.669,3,3,0,0,1,4.987,0,1.5,1.5,0,1,0,2.493-1.669A5.991,5.991,0,0,0,48.706,29.047Z"></path><path d="M45.821,40.441a1.5,1.5,0,0,0-2.035.6,8.5,8.5,0,0,1-14.771.288,1.5,1.5,0,1,0-2.576,1.538,11.5,11.5,0,0,0,19.981-.389A1.5,1.5,0,0,0,45.821,40.441Z"></path></g></svg></g></g></svg>